# xmcd CD database file
#
# Track frame offsets:
#	150
#	7521
#	34686
#	46665
#	61481
#	81755
#	120755
#	134039
#	164031
#	192753
#	249891
#	342865
#
# Disc length: 4795 seconds
#
# Revision: 0
# Processed by: cddbd v1.5.2PL0 Copyright (c) Steve Scherf et al.
# Submitted via: CDex 1.51
#
DISCID=8f12b90c
DTITLE=Saint Germain e a Nova Era - Práticas Espirituais
DYEAR=2013
DGENRE=New Age
TTITLE0=Banho de Luz Violeta
TTITLE1=Espiral de Fogo Violeta
TTITLE2=Saudação ao Sol
TTITLE3=Saudação a Divina Presença
TTITLE4=Criando um CInturão Eletrônico
TTITLE5=Expurgo e Libertação
TTITLE6=Sintonia com a Divina Presença
TTITLE7=Trabalhando com o Perdão
TTITLE8=Corando Laços
TTITLE9=Vivências com Saint Germain
TTITLE10=Purificação dos Registros do Passado
TTITLE11=A Música do Fogo Mágico - Wagner Piano
EXTD=YEAR: 2013
EXTT0=
EXTT1=
EXTT2=
EXTT3=
EXTT4=
EXTT5=
EXTT6=
EXTT7=
EXTT8=
EXTT9=
EXTT10=
EXTT11=
PLAYORDER=
